<svg width="139" height="41" viewBox="0 0 139 41" fill="none" xmlns="http://www.w3.org/2000/svg">
<path fill-rule="evenodd" clip-rule="evenodd" d="M34.1055 8.39341C39.298 13.5961 42.2151 20.6524 42.2151 28.01V37.2574H28.3711C22.4917 37.2574 16.8051 35.3837 12.1065 31.9665L20.8279 23.2451L22.617 25.0342L28.9019 18.7493L21.5419 11.3893L15.257 17.6741L17.1326 19.5498L8.18203 28.5003C3.37206 23.3656 0.683105 16.5793 0.683105 9.5153V1.34951C0.683105 0.752176 1.16734 0.267944 1.76467 0.267944H14.5271C21.8704 0.267944 28.913 3.19076 34.1055 8.39341ZM21.2862 9.70885C21.3892 9.24848 21.2615 8.74693 20.9033 8.38866L20.0634 7.54882C19.5068 6.99222 18.6044 6.99222 18.0478 7.54882L11.497 14.0996C10.9404 14.6562 10.9404 15.5586 11.497 16.1152L12.3369 16.955C12.6951 17.3133 13.1967 17.441 13.6571 17.338L21.2862 9.70885ZM30.412 19.1753L23.1232 26.464C22.8964 26.9853 22.9962 27.6146 23.4225 28.041L24.2624 28.8808C24.819 29.4374 25.7214 29.4374 26.278 28.8808L32.8288 22.33C33.3854 21.7734 33.3854 20.871 32.8288 20.3144L31.9889 19.4746C31.5626 19.0482 30.9333 18.9485 30.412 19.1753Z" fill="#AEAEC4"/>
<path d="M55.7133 19.8264C55.2985 19.8264 54.9714 19.7147 54.7321 19.4913C54.4928 19.268 54.3732 18.9569 54.3732 18.558V9.84726C54.3732 7.58182 55.0193 5.81095 56.3116 4.53464C57.6038 3.25834 59.3986 2.62018 61.696 2.62018C63.1956 2.62018 64.4959 2.91533 65.5967 3.50562C66.6975 4.07996 67.5351 4.90956 68.1094 5.99441C68.6997 7.07927 68.9948 8.36355 68.9948 9.84726V18.558C68.9948 18.9569 68.8752 19.268 68.6359 19.4913C68.3966 19.7147 68.0695 19.8264 67.6547 19.8264C67.2399 19.8264 66.9049 19.7147 66.6496 19.4913C66.3944 19.252 66.2667 18.9409 66.2667 18.558V14.1548H57.1013V18.558C57.1013 18.9409 56.9736 19.252 56.7184 19.4913C56.4631 19.7147 56.1281 19.8264 55.7133 19.8264ZM66.2667 12.025V9.77547C66.2667 8.14818 65.8759 6.91176 65.0941 6.06621C64.3283 5.22065 63.1956 4.79788 61.696 4.79788C60.1804 4.79788 59.0317 5.22065 58.2499 6.06621C57.4842 6.8958 57.1013 8.13222 57.1013 9.77547V12.025H66.2667Z" fill="#AEAEC4"/>
<path d="M79.7281 19.8503C77.9573 19.8503 76.4177 19.5073 75.1095 18.8213C73.8172 18.1193 72.8201 17.1222 72.1182 15.8299C71.4321 14.5377 71.0891 13.0141 71.0891 11.2592C71.0891 9.50425 71.4321 7.98066 72.1182 6.6884C72.8201 5.38019 73.8172 4.3751 75.1095 3.67314C76.4177 2.97117 77.9493 2.62018 79.7042 2.62018C81.14 2.62018 82.4722 2.86747 83.7006 3.36204C84.9291 3.8566 85.8544 4.51869 86.4766 5.34828C86.6361 5.57164 86.7159 5.81095 86.7159 6.06621C86.7159 6.43314 86.5404 6.74424 86.1894 6.9995C85.982 7.12713 85.7666 7.19095 85.5433 7.19095C85.3359 7.19095 85.1285 7.14309 84.9211 7.04736C84.7296 6.95164 84.5621 6.82401 84.4185 6.66447C83.8921 6.04227 83.238 5.57961 82.4562 5.27649C81.6904 4.95742 80.7731 4.79788 79.7042 4.79788C77.8695 4.79788 76.4257 5.37222 75.3727 6.52089C74.3357 7.65361 73.8172 9.23304 73.8172 11.2592C73.8172 13.2693 74.3357 14.8408 75.3727 15.9735C76.4257 17.1062 77.8775 17.6726 79.7281 17.6726C81.2437 17.6726 82.4403 17.3615 83.3177 16.7393C84.2111 16.1171 84.6579 15.2716 84.6579 14.2026V13.5804C84.6579 13.2135 84.5781 12.9582 84.4185 12.8147C84.275 12.6711 83.9958 12.5993 83.581 12.5993H80.2785C79.8797 12.5993 79.5686 12.5115 79.3452 12.3361C79.1378 12.1446 79.0341 11.8814 79.0341 11.5463C79.0341 11.1954 79.1378 10.9241 79.3452 10.7327C79.5686 10.5412 79.8797 10.4455 80.2785 10.4455H84.7057C85.6151 10.4455 86.2851 10.6449 86.7159 11.0438C87.1626 11.4426 87.3859 12.0569 87.3859 12.8865V13.8198C87.3859 14.9844 87.0589 16.0214 86.4048 16.9307C85.7507 17.8401 84.8413 18.558 83.6767 19.0845C82.5121 19.595 81.1959 19.8503 79.7281 19.8503Z" fill="#AEAEC4"/>
<path d="M89.5947 6.20979C89.5947 5.17279 89.8978 4.35915 90.504 3.76886C91.1103 3.16261 91.9638 2.85949 93.0646 2.85949H97.3961C99.7094 2.85949 101.448 3.32215 102.613 4.24747C103.794 5.17279 104.384 6.53684 104.384 8.33962C104.384 10.0467 103.865 11.3708 102.828 12.3121C101.791 13.2534 100.356 13.724 98.5208 13.724L102.493 17.7444C102.749 17.9997 102.876 18.2788 102.876 18.582C102.876 18.917 102.717 19.2201 102.398 19.4913C102.094 19.7147 101.799 19.8264 101.512 19.8264C101.113 19.8264 100.73 19.6349 100.363 19.252L95.0987 13.7958H92.3946V18.558C92.3946 18.9569 92.259 19.276 91.9877 19.5153C91.7325 19.7386 91.3975 19.8503 90.9827 19.8503C90.5519 19.8503 90.2089 19.7386 89.9536 19.5153C89.7143 19.276 89.5947 18.9569 89.5947 18.558V6.20979ZM97.3722 11.5942C98.9037 11.5942 99.9806 11.3549 100.603 10.8763C101.241 10.3817 101.56 9.53616 101.56 8.33962C101.56 7.175 101.217 6.33742 100.531 5.8269C99.845 5.31638 98.792 5.06112 97.3722 5.06112H93.4715C93.1364 5.06112 92.8732 5.17279 92.6817 5.39615C92.4903 5.60355 92.3946 5.89869 92.3946 6.28158V11.5942H97.3722Z" fill="#AEAEC4"/>
<path d="M114.39 19.8503C112.62 19.8503 111.064 19.4913 109.724 18.7734C108.4 18.0555 107.379 17.0424 106.661 15.7342C105.943 14.426 105.584 12.9263 105.584 11.2352C105.584 9.54414 105.943 8.04448 106.661 6.73626C107.379 5.42805 108.4 4.41499 109.724 3.69707C111.064 2.97915 112.62 2.62018 114.39 2.62018C116.161 2.62018 117.709 2.97915 119.033 3.69707C120.373 4.41499 121.402 5.42805 122.12 6.73626C122.838 8.04448 123.197 9.54414 123.197 11.2352C123.197 12.9263 122.838 14.426 122.12 15.7342C121.402 17.0424 120.373 18.0555 119.033 18.7734C117.709 19.4913 116.161 19.8503 114.39 19.8503ZM114.39 17.6726C116.257 17.6726 117.733 17.0983 118.818 15.9496C119.902 14.8009 120.445 13.2295 120.445 11.2352C120.445 9.22506 119.887 7.65361 118.77 6.52089C117.669 5.37222 116.161 4.79788 114.247 4.79788C113.034 4.79788 111.981 5.06112 111.088 5.58759C110.195 6.11407 109.509 6.8639 109.03 7.83708C108.551 8.81026 108.312 9.94298 108.312 11.2352C108.312 12.5594 108.559 13.7081 109.054 14.6813C109.548 15.6385 110.25 16.3803 111.16 16.9068C112.069 17.4173 113.146 17.6726 114.39 17.6726Z" fill="#AEAEC4"/>
<path d="M58.0824 40.0286C56.9497 40.0286 56.0643 39.7335 55.4261 39.1432C54.8039 38.537 54.4928 37.6994 54.4928 36.6305V26.6035C54.4928 25.5665 54.7959 24.7529 55.4022 24.1626C56.0084 23.5723 56.854 23.2771 57.9388 23.2771H61.2891C63.076 23.2771 64.6155 23.6202 65.9078 24.3062C67.216 24.9762 68.2211 25.9414 68.923 27.2018C69.625 28.4621 69.976 29.9538 69.976 31.6768C69.976 33.3998 69.625 34.8915 68.923 36.1519C68.237 37.3963 67.2399 38.3535 65.9317 39.0235C64.6235 39.6936 63.076 40.0286 61.2891 40.0286H58.0824ZM61.0498 37.8988C63.0919 37.8988 64.6235 37.3803 65.6445 36.3433C66.6815 35.2904 67.2 33.7349 67.2 31.6768C67.2 29.6188 66.6815 28.0633 65.6445 27.0103C64.6075 25.9414 63.076 25.407 61.0498 25.407H58.3217C57.9708 25.407 57.6995 25.5187 57.5081 25.742C57.3166 25.9654 57.2209 26.2685 57.2209 26.6514V36.6544C57.2209 37.0373 57.3166 37.3404 57.5081 37.5638C57.6995 37.7871 57.9708 37.8988 58.3217 37.8988H61.0498Z" fill="#AEAEC4"/>
<path d="M75.3309 40.244C74.9161 40.244 74.589 40.1323 74.3497 39.909C74.1104 39.6856 73.9907 39.3745 73.9907 38.9757V30.2649C73.9907 27.9995 74.6369 26.2286 75.9291 24.9523C77.2214 23.676 79.0162 23.0378 81.3135 23.0378C82.8132 23.0378 84.1134 23.333 85.2142 23.9233C86.315 24.4976 87.1526 25.3272 87.727 26.4121C88.3172 27.4969 88.6124 28.7812 88.6124 30.2649V38.9757C88.6124 39.3745 88.4927 39.6856 88.2534 39.909C88.0141 40.1323 87.6871 40.244 87.2723 40.244C86.8575 40.244 86.5224 40.1323 86.2672 39.909C86.0119 39.6697 85.8843 39.3586 85.8843 38.9757V34.5724H76.7188V38.9757C76.7188 39.3586 76.5912 39.6697 76.3359 39.909C76.0807 40.1323 75.7457 40.244 75.3309 40.244ZM85.8843 32.4426V30.1931C85.8843 28.5658 85.4934 27.3294 84.7117 26.4839C83.9459 25.6383 82.8132 25.2155 81.3135 25.2155C79.7979 25.2155 78.6492 25.6383 77.8675 26.4839C77.1017 27.3135 76.7188 28.5499 76.7188 30.1931V32.4426H85.8843Z" fill="#AEAEC4"/>
<path d="M98.4677 40.2679C98.0529 40.2679 97.7179 40.1563 97.4626 39.9329C97.2233 39.7096 97.1037 39.3985 97.1037 38.9996V25.407H92.1979C91.7831 25.407 91.464 25.3192 91.2407 25.1437C91.0173 24.9523 90.9056 24.6891 90.9056 24.354C90.9056 24.003 91.0173 23.7398 91.2407 23.5643C91.464 23.3729 91.7831 23.2771 92.1979 23.2771H104.738C105.152 23.2771 105.471 23.3729 105.695 23.5643C105.934 23.7398 106.054 24.003 106.054 24.354C106.054 24.6891 105.934 24.9523 105.695 25.1437C105.471 25.3192 105.152 25.407 104.738 25.407H99.8318V38.9996C99.8318 39.3825 99.7042 39.6936 99.4489 39.9329C99.2096 40.1563 98.8825 40.2679 98.4677 40.2679Z" fill="#AEAEC4"/>
<path d="M109.682 40.244C109.267 40.244 108.94 40.1323 108.701 39.909C108.461 39.6856 108.342 39.3745 108.342 38.9757V30.2649C108.342 27.9995 108.988 26.2286 110.28 24.9523C111.572 23.676 113.367 23.0378 115.664 23.0378C117.164 23.0378 118.464 23.333 119.565 23.9233C120.666 24.4976 121.503 25.3272 122.078 26.4121C122.668 27.4969 122.963 28.7812 122.963 30.2649V38.9757C122.963 39.3745 122.844 39.6856 122.604 39.909C122.365 40.1323 122.038 40.244 121.623 40.244C121.208 40.244 120.873 40.1323 120.618 39.909C120.363 39.6697 120.235 39.3586 120.235 38.9757V34.5724H111.07V38.9757C111.07 39.3586 110.942 39.6697 110.687 39.909C110.432 40.1323 110.097 40.244 109.682 40.244ZM120.235 32.4426V30.1931C120.235 28.5658 119.844 27.3294 119.063 26.4839C118.297 25.6383 117.164 25.2155 115.664 25.2155C114.149 25.2155 113 25.6383 112.218 26.4839C111.453 27.3135 111.07 28.5499 111.07 30.1931V32.4426H120.235Z" fill="#AEAEC4"/>
<path d="M124.753 9.52494C124.753 7.06983 125.727 4.71528 127.461 2.97926C129.194 1.24323 131.545 0.267944 133.996 0.267944H138.618V3.35361C138.618 5.80872 137.644 8.16327 135.911 9.8993C134.177 11.6353 131.826 12.6106 129.375 12.6106H124.753" fill="#AEAEC4"/>
</svg>
