<svg width="176" height="41" viewBox="0 0 176 41" fill="none" xmlns="http://www.w3.org/2000/svg">
<g clip-path="url(#clip0_159_1565)">
<path d="M52.72 32.2679C50.56 32.2679 48.64 31.7879 46.96 30.7479L48.08 28.5879C48.8 28.9879 49.52 29.3079 50.24 29.5479C50.96 29.7879 51.84 29.9479 52.72 29.9479C54 29.9479 55.04 29.6279 55.76 28.9879C56.48 28.3479 56.8 27.3879 56.8 26.0279V25.0679C56.24 25.7879 55.6 26.3479 54.88 26.7479C54.16 27.1479 53.28 27.3879 52.24 27.3879C51.44 27.3879 50.72 27.2279 50.08 26.9879C49.44 26.7479 48.72 26.3479 48.24 25.7879C47.68 25.3079 47.28 24.6679 46.96 23.9479C46.64 23.2279 46.48 22.3479 46.48 21.4679V21.3879C46.48 20.4279 46.64 19.6279 46.96 18.9079C47.28 18.1879 47.76 17.5479 48.24 17.0679C48.8 16.5879 49.44 16.1879 50.16 15.8679C50.88 15.6279 51.6 15.4679 52.32 15.4679C53.44 15.4679 54.32 15.7079 55.04 16.1079C55.76 16.5079 56.32 17.0679 56.88 17.6279V15.7079H59.84V25.7879C59.84 27.8679 59.28 29.4679 58.24 30.5879C57.68 31.1479 56.88 31.6279 56 31.8679C54.96 32.1079 53.92 32.2679 52.72 32.2679ZM52.96 24.9079C53.44 24.9079 53.92 24.8279 54.4 24.6679C54.88 24.5079 55.28 24.2679 55.6 23.9479C55.92 23.6279 56.24 23.2279 56.4 22.8279C56.64 22.4279 56.72 21.9479 56.72 21.3879V21.3079C56.72 20.7479 56.64 20.2679 56.4 19.8679C56.16 19.4679 55.92 19.0679 55.6 18.7479C55.28 18.4279 54.88 18.1879 54.4 18.0279C53.92 17.8679 53.44 17.7879 52.96 17.7879C52.4 17.7879 51.92 17.8679 51.52 18.0279C51.12 18.1879 50.72 18.4279 50.32 18.7479C50 19.0679 49.76 19.3879 49.52 19.8679C49.36 20.2679 49.2 20.7479 49.2 21.3079V21.3879C49.2 21.9479 49.28 22.4279 49.52 22.8279C49.68 23.2279 50 23.6279 50.32 23.9479C50.64 24.2679 51.04 24.5079 51.52 24.6679C52 24.7479 52.48 24.9079 52.96 24.9079ZM63.36 15.6279H66.32V18.5079C66.72 17.5479 67.28 16.7479 68.08 16.1879C68.8 15.6279 69.76 15.3079 70.88 15.3879V18.5079H70.72C70.08 18.5079 69.44 18.5879 68.96 18.8279C68.48 19.0679 67.92 19.3879 67.6 19.7879C67.2 20.1879 66.88 20.7479 66.72 21.3879C66.4 21.9479 66.32 22.6679 66.32 23.4679V28.2679H63.36V15.6279ZM81.36 28.3479V26.7479C80.96 27.2279 80.32 27.7079 79.68 28.0279C78.96 28.3479 78.16 28.5879 77.2 28.5879C76.56 28.5879 76 28.5079 75.44 28.3479C74.88 28.1879 74.4 27.9479 74 27.6279C73.6 27.3079 73.28 26.9079 72.96 26.4279C72.72 25.9479 72.56 25.3879 72.56 24.7479V24.6679C72.56 23.9479 72.72 23.3879 72.96 22.8279C73.2 22.2679 73.6 21.8679 74.08 21.5479C74.56 21.2279 75.12 20.9079 75.76 20.7479C76.4 20.5879 77.12 20.5079 77.84 20.5079C78.64 20.5079 79.28 20.5879 79.84 20.6679C80.4 20.7479 80.88 20.9079 81.44 21.0679V20.8279C81.44 19.9479 81.2 19.3079 80.64 18.8279C80.08 18.3479 79.28 18.1079 78.32 18.1079C77.6 18.1079 76.96 18.1879 76.4 18.3479C75.84 18.5079 75.28 18.6679 74.64 18.9079L73.84 16.5879C74.56 16.2679 75.28 16.0279 76 15.7879C76.72 15.6279 77.68 15.4679 78.72 15.4679C80.64 15.4679 82.08 15.9479 82.96 16.9079C83.92 17.8679 84.32 19.1479 84.32 20.8279V28.3479H81.36ZM81.36 22.9879C80.96 22.8279 80.56 22.7479 80 22.5879C79.52 22.5079 78.96 22.4279 78.4 22.4279C77.44 22.4279 76.72 22.5879 76.24 22.9879C75.68 23.3079 75.44 23.7879 75.44 24.4279V24.5079C75.44 25.1479 75.68 25.5479 76.16 25.8679C76.64 26.1879 77.2 26.3479 77.92 26.3479C78.4 26.3479 78.88 26.2679 79.28 26.1879C79.68 26.0279 80.08 25.8679 80.4 25.6279C80.72 25.3879 80.96 25.1479 81.12 24.7479C81.28 24.4279 81.36 24.0279 81.36 23.6279V22.9879ZM87.76 15.6279H90.72V17.6279C90.96 17.3079 91.2 17.0679 91.44 16.7479C91.68 16.5079 92 16.2679 92.32 16.0279C92.64 15.7879 93.04 15.6279 93.44 15.5479C93.84 15.3879 94.32 15.3879 94.8 15.3879C96.24 15.3879 97.36 15.8679 98.16 16.7479C98.96 17.6279 99.36 18.8279 99.36 20.3479V28.4279H96.4V21.2279C96.4 20.2679 96.16 19.4679 95.68 18.9079C95.2 18.3479 94.56 18.1079 93.68 18.1079C92.8 18.1079 92.16 18.3479 91.6 18.9079C91.04 19.4679 90.8 20.2679 90.8 21.2279V28.3479H87.84V15.6279H87.76ZM108.24 28.5879C107.44 28.5879 106.72 28.4279 106 28.1879C105.28 27.8679 104.64 27.4679 104.08 26.9079C103.52 26.3479 103.04 25.6279 102.72 24.8279C102.4 24.0279 102.24 23.0679 102.24 22.0279V21.9479C102.24 20.9079 102.4 19.9479 102.72 19.1479C103.04 18.3479 103.52 17.6279 104.08 17.0679C104.64 16.5079 105.28 16.1079 106 15.7879C106.72 15.4679 107.44 15.3879 108.24 15.3879C109.28 15.3879 110.16 15.6279 110.88 16.0279C111.6 16.5079 112.16 16.9879 112.64 17.6279V10.8279H115.6V28.4279H112.64V26.3479C112.16 26.9879 111.6 27.5479 110.88 28.0279C110.16 28.3479 109.28 28.5879 108.24 28.5879ZM108.96 26.1079C109.44 26.1079 109.92 26.0279 110.4 25.7879C110.88 25.6279 111.28 25.3079 111.6 24.9879C111.92 24.5879 112.24 24.1879 112.4 23.7079C112.64 23.2279 112.72 22.6679 112.72 22.0279V21.9479C112.72 21.3079 112.64 20.7479 112.4 20.2679C112.16 19.7879 111.92 19.3079 111.6 18.9879C111.28 18.6679 110.88 18.3479 110.4 18.1879C109.92 18.0279 109.44 17.8679 108.96 17.8679C108.48 17.8679 108 17.9479 107.52 18.1079C107.04 18.2679 106.72 18.5879 106.32 18.9079C106 19.2279 105.68 19.7079 105.52 20.1879C105.36 20.6679 105.2 21.2279 105.2 21.8679V21.9479C105.2 22.5879 105.28 23.1479 105.52 23.6279C105.68 24.1079 106 24.5879 106.32 24.9079C106.64 25.2279 107.04 25.5479 107.52 25.7079C107.92 25.9479 108.4 26.1079 108.96 26.1079ZM123.68 28.5879C122.72 28.5879 121.84 28.4279 120.88 28.1079C119.92 27.7879 119.04 27.3079 118.24 26.6679L119.52 24.6679C120.24 25.1479 120.96 25.5479 121.68 25.8679C122.4 26.1079 123.12 26.2679 123.76 26.2679C124.4 26.2679 124.88 26.1079 125.2 25.8679C125.52 25.6279 125.76 25.3079 125.76 24.9079V24.8279C125.76 24.5879 125.68 24.3479 125.52 24.1879C125.36 24.0279 125.12 23.8679 124.88 23.7079C124.64 23.5479 124.32 23.4679 123.92 23.3079C123.6 23.2279 123.2 23.0679 122.8 22.9879C122.32 22.8279 121.84 22.7479 121.36 22.5079C120.88 22.3479 120.48 22.1079 120.08 21.7879C119.68 21.5479 119.36 21.1479 119.12 20.7479C118.88 20.3479 118.72 19.7879 118.72 19.2279V19.1479C118.72 18.5879 118.8 18.0279 119.04 17.5479C119.28 17.0679 119.6 16.6679 120 16.3479C120.4 16.0279 120.88 15.7879 121.44 15.5479C122 15.3879 122.56 15.3079 123.2 15.3079C124 15.3079 124.8 15.4679 125.68 15.7079C126.48 15.9479 127.28 16.3479 127.92 16.7479L126.72 18.8279C126.08 18.4279 125.44 18.1879 124.8 17.9479C124.16 17.7079 123.6 17.6279 123.04 17.6279C122.48 17.6279 122 17.7879 121.68 18.0279C121.36 18.2679 121.6 18.6679 121.6 18.9879V19.0679C121.6 19.3079 121.68 19.4679 121.84 19.6279C122 19.7879 122.24 19.9479 122.48 20.1079C122.72 20.2679 123.04 20.3479 123.44 20.5079C123.76 20.6679 124.16 20.7479 124.56 20.8279L126 21.3079C126.48 21.4679 126.88 21.7079 127.28 22.0279C127.68 22.2679 128 22.6679 128.24 23.0679C128.48 23.4679 128.64 23.9479 128.64 24.5079V24.5879C128.64 25.2279 128.48 25.8679 128.24 26.3479C128 26.8279 127.68 27.2279 127.2 27.5479C126.8 27.8679 126.24 28.1079 125.68 28.2679C124.96 28.5079 124.32 28.5879 123.68 28.5879ZM131.52 10.7479H134.48V17.6279C134.72 17.3079 134.96 17.0679 135.2 16.7479C135.44 16.5079 135.76 16.2679 136.08 16.0279C136.4 15.7879 136.8 15.6279 137.2 15.5479C137.6 15.3879 138.08 15.3879 138.56 15.3879C140 15.3879 141.12 15.8679 141.92 16.7479C142.72 17.6279 143.12 18.8279 143.12 20.3479V28.4279H140.16V21.2279C140.16 20.2679 139.92 19.4679 139.44 18.9079C138.96 18.3479 138.32 18.1079 137.44 18.1079C136.56 18.1079 135.92 18.3479 135.36 18.9079C134.8 19.4679 134.56 20.2679 134.56 21.2279V28.3479H131.6V10.7479H131.52ZM152.72 28.5879C151.76 28.5879 150.8 28.4279 150 28.1079C149.2 27.7879 148.4 27.3079 147.84 26.6679C147.2 26.1079 146.72 25.3879 146.4 24.5879C146.08 23.7879 145.92 22.9079 145.92 22.0279V21.9479C145.92 21.0679 146.08 20.1879 146.48 19.3879C146.8 18.5879 147.28 17.8679 147.92 17.3079C148.56 16.6679 149.28 16.2679 150.08 15.8679C150.88 15.5479 151.84 15.3079 152.8 15.3079C153.76 15.3079 154.72 15.4679 155.52 15.7879C156.32 16.1079 157.12 16.5879 157.68 17.2279C158.32 17.8679 158.8 18.5079 159.12 19.3079C159.44 20.1079 159.6 20.9879 159.6 21.8679V21.9479C159.6 22.8279 159.44 23.7079 159.04 24.5079C158.72 25.3079 158.24 26.0279 157.6 26.5879C156.96 27.2279 156.24 27.6279 155.44 28.0279C154.64 28.4279 153.76 28.5879 152.72 28.5879ZM152.8 26.1079C153.36 26.1079 153.92 26.0279 154.4 25.7879C154.88 25.5479 155.28 25.3079 155.6 24.9079C155.92 24.5079 156.16 24.1079 156.4 23.6279C156.56 23.1479 156.64 22.5879 156.64 22.1079V22.0279C156.64 21.4679 156.56 20.9079 156.32 20.4279C156.16 19.9479 155.84 19.4679 155.52 19.1479C155.2 18.7479 154.72 18.5079 154.32 18.2679C153.84 18.0279 153.28 17.9479 152.72 17.9479C152.16 17.9479 151.6 18.0279 151.12 18.2679C150.64 18.5079 150.24 18.7479 149.92 19.1479C149.6 19.5479 149.36 19.9479 149.12 20.4279C148.96 20.9079 148.88 21.4679 148.88 22.0279V22.1079C148.88 22.6679 148.96 23.2279 149.2 23.7079C149.36 24.1879 149.68 24.6679 150 24.9879C150.32 25.3879 150.8 25.6279 151.2 25.8679C151.68 25.9479 152.24 26.1079 152.8 26.1079ZM162.64 15.6279H165.6V17.7079C166.08 17.0679 166.64 16.5079 167.36 16.0279C168.08 15.5479 168.96 15.3079 170 15.3079C170.8 15.3079 171.52 15.4679 172.24 15.7079C172.96 16.0279 173.6 16.4279 174.16 16.9879C174.72 17.5479 175.2 18.2679 175.52 19.0679C175.84 19.8679 176 20.8279 176 21.8679V21.9479C176 22.9879 175.84 23.9479 175.52 24.7479C175.2 25.5479 174.72 26.2679 174.16 26.8279C173.6 27.3879 172.96 27.7879 172.24 28.1079C171.52 28.4279 170.8 28.5079 170 28.5079C168.96 28.5079 168.08 28.2679 167.36 27.8679C166.64 27.3879 166.08 26.9079 165.6 26.2679V32.1079H162.64V15.6279ZM169.36 26.1079C169.84 26.1079 170.32 26.0279 170.8 25.7879C171.28 25.6279 171.6 25.3079 172 24.9879C172.32 24.6679 172.56 24.1879 172.8 23.7079C172.96 23.2279 173.12 22.6679 173.12 22.0279V21.9479C173.12 21.3079 173.04 20.7479 172.8 20.2679C172.64 19.7879 172.32 19.3079 172 18.9879C171.68 18.6679 171.28 18.3479 170.8 18.1879C170.32 18.0279 169.84 17.8679 169.36 17.8679C168.88 17.8679 168.4 17.9479 167.92 18.1879C167.44 18.3479 167.04 18.6679 166.72 18.9879C166.4 19.3879 166.08 19.7879 165.92 20.2679C165.68 20.7479 165.6 21.3079 165.6 21.9479V22.0279C165.6 22.6679 165.68 23.2279 165.92 23.7079C166.16 24.1879 166.4 24.6679 166.72 24.9879C167.04 25.3079 167.44 25.6279 167.92 25.7879C168.32 25.9479 168.8 26.1079 169.36 26.1079Z" fill="#AEAEC4"/>
<path d="M36.7999 11.8679C36.7999 11.7879 36.7199 11.7079 36.7199 11.6279V11.5479C36.7199 11.4679 36.7199 11.4679 36.6399 11.3879V11.3079C36.6399 11.2279 36.6399 11.2279 36.5599 11.1479V11.0679C36.5599 10.9879 36.5599 10.9879 36.4799 10.9079C36.4799 10.9079 36.4799 10.8279 36.3999 10.8279C36.3999 10.7479 36.3199 10.7479 36.3199 10.6679C36.3199 10.6679 36.3199 10.5879 36.2399 10.5879C36.2399 10.5079 36.1599 10.5079 36.1599 10.4279C36.1599 10.4279 36.1599 10.3479 36.0799 10.3479C36.0799 10.2679 35.9999 10.2679 35.9999 10.1879C35.9999 10.1879 35.9999 10.1079 35.9199 10.1079C35.9199 10.0279 35.8399 10.0279 35.8399 10.0279C35.8399 10.0279 35.8399 9.94794 35.7599 9.94794L35.6799 9.86794L35.5999 9.78794L35.5199 9.70794L35.4399 9.62794L35.3599 9.54795L35.2799 9.46794L35.1999 9.38794L35.1199 9.30794L35.0399 9.22794L34.9599 9.14794L34.8799 9.06794L34.7999 8.98794L34.7199 8.90794L34.6399 8.82794L34.5599 8.74794L34.4799 8.66794L30.6399 10.8279L25.9199 13.4679L13.6799 6.42794L16.8799 4.58794C17.3599 4.26794 17.9199 4.18794 18.4799 4.18794C19.0399 4.18794 19.5999 4.34794 20.0799 4.58794L26.9599 8.50795L30.9599 6.26794L22.0799 1.22794C19.8399 -0.0520557 17.1199 -0.0520557 14.8799 1.22794L9.67993 4.18794L5.67993 6.42794L9.67993 8.66794L24.2399 16.8279L25.0399 17.2279C25.6799 17.5479 26.3999 17.5479 27.0399 17.3079H27.1199L33.1199 13.9479V26.7479C33.1199 27.8679 32.4799 28.9079 31.5199 29.4679L28.2399 31.3079V21.1479L24.2399 23.3879V38.1079L28.2399 35.8679L33.5199 32.9079C35.7599 31.6279 37.1199 29.3079 37.1199 26.7479V13.7879C37.0399 13.1479 36.9599 12.5079 36.7999 11.8679Z" fill="#AEAEC4"/>
<path d="M19.76 24.268L20.56 24.668V20.268C20.56 19.548 20.16 18.908 19.52 18.588L12.4 14.588L8.4 12.348L5.84 10.908L3.68 9.70797C2.64 9.14797 1.36 9.46797 0.8 10.508C0.48 11.068 0.32 11.628 0.16 12.268C0 12.748 0 13.308 0 13.868V26.748C0 29.308 1.36 31.628 3.6 32.908L3.92 33.068L7.92 35.308L8.4 35.628L12.4 37.868L14.96 39.308C15.44 39.628 16 39.788 16.56 39.948C17.2 40.108 17.84 40.188 18.56 40.188C19.2 40.188 19.92 40.108 20.56 39.948V28.748L16.56 26.508L11.12 23.468C10.08 22.908 8.72 23.628 8.72 24.828V25.708C8.72 26.268 9.04 26.828 9.52 27.068L16.56 30.988V35.628L12.4 33.228L8.4 30.988L7.92 30.668L5.6 29.468C4.64 28.908 3.92 27.868 3.92 26.748V14.348L8.32 16.828L12.32 19.068L16.48 21.388V22.428L19.76 24.268Z" fill="#AEAEC4"/>
</g>
<defs>
<clipPath id="clip0_159_1565">
<rect width="176" height="40" fill="white" transform="translate(0 0.267944)"/>
</clipPath>
</defs>
</svg>
