<svg width="126" height="63" viewBox="0 0 126 63" fill="none" xmlns="http://www.w3.org/2000/svg">
<path fill-rule="evenodd" clip-rule="evenodd" d="M42.9217 18.3352V27.7714L47.756 32.6048L47.7313 11.123L45.3632 10.0139C44.0607 9.40391 42.9785 8.90344 42.9583 8.90188C42.9382 8.90016 42.9217 13.1452 42.9217 18.3352ZM40.4438 11.647L39.6991 11.995V27.1838L41.0144 25.8711L41.2616 26.1034V18.6975C41.2616 14.6242 41.2452 11.2931 41.225 11.2952C41.2049 11.2972 40.8533 11.4555 40.4438 11.647ZM37.2211 13.1566L36.4764 13.5067V30.4066L38.0389 28.8464V20.8258C38.0389 16.4144 38.0225 12.8055 38.0024 12.8058C37.9822 12.8061 37.6307 12.9639 37.2211 13.1566ZM29.0058 20.5809V26.6964L30.8361 24.8659L32.7655 26.7934V16.1892L30.9191 15.3272C29.9036 14.8531 29.0577 14.4653 29.0392 14.4653C29.0208 14.4653 29.0058 17.2173 29.0058 20.5809ZM27.0403 16.6006L26.4667 16.873V29.2344L27.6874 28.0166V22.1688C27.6874 18.9523 27.671 16.3225 27.6508 16.3245C27.6307 16.3266 27.356 16.4508 27.0403 16.6006ZM17.8241 23.0466V28.6005L19.1794 27.2458C20.6091 25.8167 20.5741 25.8458 20.7136 25.9722C20.8005 26.0508 20.8028 25.9428 20.7906 22.4511L20.7782 18.8489L19.3227 18.1708C18.5221 17.7978 17.8574 17.4927 17.8456 17.4927C17.8338 17.4927 17.8241 19.9919 17.8241 23.0466ZM24.5136 17.7838L23.9032 18.0717L23.8783 29.1392L25.1483 30.4063V23.9495C25.1483 20.3983 25.1428 17.4933 25.1361 17.4942C25.1294 17.495 24.8492 17.6253 24.5136 17.7838ZM15.8222 19.412V30.6023L16.7991 29.6255L16.7742 18.9631L15.8222 19.412ZM13.8202 20.3411V32.6044L14.7972 31.6273L14.7724 19.9042L13.8202 20.3411ZM25.2219 33.9966L20.5825 29.358L12.7706 37.1703L13.9058 38.3055L15.0408 39.4406L17.7877 36.6942C19.2983 35.1836 20.5561 33.9478 20.5827 33.9478C20.6092 33.9478 21.153 34.4695 21.7911 35.1072L22.9513 36.2666L17.4094 41.8091L18.5444 42.9442L19.6796 44.0794L30.8371 32.9222L36.4028 38.4888L38.6738 36.2183C39.9227 34.9695 40.9664 33.9478 40.993 33.9478C41.0197 33.9478 42.2886 35.1947 43.8127 36.7186L46.5839 39.4894L48.8541 37.2192L44.9238 33.2886L40.9933 29.358L38.7225 31.6284C37.4735 32.8772 36.4299 33.8989 36.4032 33.8989C36.3764 33.8989 35.1132 32.6575 33.5957 31.1402L30.8364 28.3814L25.2219 33.9966ZM28.7128 41.3719L30.3974 41.3452L30.4241 39.6606H28.7128V41.3719ZM31.3007 41.3697H32.9608V39.6606H31.3007V41.3697ZM28.7128 43.9088H30.4217V43.0786V42.2486H28.7128V43.9088ZM31.3007 43.9088H32.9608V42.2486H31.3007V43.9088Z" fill="#AEAEC4"/>
<path fill-rule="evenodd" clip-rule="evenodd" d="M36.4031 45.0804L30.837 50.6469L25.2699 45.0803L22.9758 47.3758L30.8366 55.2369L44.2886 41.7851L43.1539 40.6497C42.5299 40.0251 42.008 39.5142 41.9942 39.5142C41.9806 39.5142 39.4647 42.019 36.4031 45.0804Z" fill="#AEAEC4"/>
<path fill-rule="evenodd" clip-rule="evenodd" d="M41.2853 18.6889C41.2853 22.7978 41.2911 24.4715 41.2981 22.4083C41.3052 20.345 41.3052 16.9831 41.2981 14.9375C41.2911 12.8919 41.2853 14.58 41.2853 18.6889ZM38.0267 17.8955C38.0335 20.722 38.0447 24.342 38.0516 25.94C38.0584 27.5378 38.0694 25.2251 38.076 20.8008C38.0824 16.3762 38.0713 12.7562 38.0511 12.7562C38.031 12.7562 38.02 15.0689 38.0267 17.8955ZM28.9569 20.5689C28.9569 23.9526 28.9736 26.7212 28.9939 26.7212C29.0144 26.7212 29.4483 26.2981 29.9583 25.7812L30.8856 24.8412L29.0058 26.6964L29.0175 20.5565C29.0245 17.1795 29.0136 14.4164 28.9934 14.4164C28.9733 14.4164 28.9569 17.185 28.9569 20.5689ZM32.7891 21.5209C32.7891 24.4483 32.7949 25.653 32.802 24.1981C32.8092 22.7433 32.8092 20.3481 32.802 18.8758C32.7949 17.4034 32.7891 18.5937 32.7891 21.5209ZM26.4299 23.0469C26.4233 26.4642 26.4347 29.2603 26.4552 29.2603C26.4758 29.2603 26.7669 28.9801 27.1022 28.6376L27.7117 28.0151L26.4667 29.2344L26.4419 16.8334L26.4299 23.0469ZM19.1666 27.2705L17.7997 28.6498L19.1791 27.283C20.4609 26.0128 20.5805 25.8911 20.5459 25.8911C20.5391 25.8911 19.9183 26.5119 19.1666 27.2705ZM27.9802 31.2011L25.1727 34.0209L27.9925 31.2136C29.5434 29.6694 30.8124 28.4005 30.8124 28.3937C30.8124 28.3594 30.5899 28.58 27.9802 31.2011ZM33.5957 31.1402C35.1127 32.6575 36.365 33.8989 36.3784 33.8989C36.3919 33.8989 35.1616 32.6575 33.6444 31.1401C32.1272 29.6228 30.875 28.3814 30.8616 28.3814C30.8481 28.3814 32.0785 29.6228 33.5957 31.1402ZM24.4891 29.7973C24.8375 30.1464 25.1334 30.4322 25.1469 30.4322C25.1603 30.4322 24.8863 30.1464 24.538 29.7973C24.1895 29.4483 23.8936 29.1626 23.8802 29.1626C23.8667 29.1626 24.1408 29.4483 24.4891 29.7973ZM44.9238 33.2886C47.0855 35.4505 48.8652 37.2192 48.8786 37.2192C48.8919 37.2192 47.1342 35.4505 44.9725 33.2886C42.8108 31.1267 41.0311 29.358 41.0177 29.358C41.0042 29.358 42.7619 31.1267 44.9238 33.2886ZM16.285 30.1514L15.7977 30.6519L16.2981 30.1645C16.5734 29.8964 16.7988 29.6712 16.7988 29.6639C16.7988 29.6286 16.7377 29.6866 16.285 30.1514ZM14.2831 32.1533L13.7958 32.6537L14.2963 32.1664C14.5716 31.8984 14.7967 31.6731 14.7967 31.6659C14.7967 31.6306 14.7358 31.6884 14.2831 32.1533ZM17.7995 36.6944L15.0653 39.4409L17.8119 36.7067C20.3649 34.1651 20.5803 33.9478 20.5461 33.9478C20.5392 33.9478 19.3033 35.1837 17.7995 36.6944ZM21.7427 35.1075L22.902 36.2676L17.4091 41.7847L22.9508 36.2676L21.7911 35.1072C21.1536 34.4692 20.6214 33.9478 20.6078 33.9478C20.5942 33.9478 21.1049 34.4698 21.7427 35.1075ZM38.6735 36.2305L36.4031 38.5131L38.686 36.2428C39.9414 34.9942 40.9686 33.967 40.9686 33.9601C40.9686 33.9258 40.7838 34.1087 38.6735 36.2305ZM32.9809 40.5151C32.9809 40.9986 32.9883 41.1897 32.9972 40.9398C33.0061 40.6901 33.0061 40.2947 32.997 40.0609C32.9881 39.8273 32.9809 40.0317 32.9809 40.5151ZM32.9608 43.9064L31.2763 43.9356L32.12 43.9465C32.7716 43.955 32.9694 43.9431 32.988 43.8945C33.0013 43.86 33.0055 43.47 32.9974 43.028L32.9827 42.224L32.9608 43.9064ZM29.1131 43.945C29.3467 43.9539 29.7422 43.9539 29.992 43.9451C30.2417 43.9362 30.0506 43.9289 29.5672 43.9289C29.0839 43.9287 28.8795 43.9361 29.1131 43.945Z" fill="#AEAEC4"/>
<path fill-rule="evenodd" clip-rule="evenodd" d="M20.8025 22.4633L20.827 26.1108L20.8395 22.5003C20.8464 20.5145 20.8355 18.8731 20.8152 18.8528C20.7948 18.8325 20.7892 20.4572 20.8025 22.4633ZM16.7986 24.2944L16.8231 29.6753L16.8355 24.3313C16.8423 21.392 16.8314 18.9706 16.8111 18.9503C16.7908 18.9302 16.7853 21.335 16.7986 24.2944ZM14.8203 25.7691C14.8203 29.0186 14.8263 30.355 14.8333 28.7391C14.8405 27.1231 14.8405 24.4645 14.8333 22.8309C14.8263 21.1973 14.8203 22.5195 14.8203 25.7691ZM30.8613 24.9272C30.8613 24.9342 31.2952 25.3681 31.8255 25.8916L32.7898 26.8433L31.8383 25.8789C30.9539 24.9828 30.8613 24.8925 30.8613 24.9272ZM41.0175 25.9064C41.0175 25.9148 41.0889 25.9863 41.1761 26.065L41.3348 26.2084L41.1914 26.0498C41.0577 25.9019 41.0175 25.8686 41.0175 25.9064ZM45.3144 30.2123C46.6434 31.5417 47.7419 32.6294 47.7553 32.6294C47.7688 32.6294 46.6924 31.5417 45.3631 30.2123C44.0339 28.883 42.9355 27.7955 42.922 27.7955C42.9086 27.7955 43.9852 28.883 45.3144 30.2123ZM16.6277 33.2764L12.7216 37.1948L16.64 33.2886C20.2827 29.6575 20.5803 29.358 20.5461 29.358C20.5394 29.358 18.7761 31.1213 16.6277 33.2764ZM22.8778 31.6528C24.1398 32.915 25.1833 33.9478 25.1967 33.9478C25.2102 33.9478 24.1886 32.915 22.9266 31.6528C21.6645 30.3906 20.6211 29.358 20.6077 29.358C20.5942 29.358 21.6158 30.3906 22.8778 31.6528ZM25.2214 38.5499L19.6552 44.1284L25.2338 38.562C28.302 35.5006 30.8123 32.9902 30.8123 32.9834C30.8123 32.9492 30.3964 33.3634 25.2214 38.5499ZM46.5839 39.5383L48.9031 37.195L46.5839 39.4894L40.993 33.9234L46.5839 39.5383ZM28.6856 39.6747C28.6723 39.7092 28.6681 40.1102 28.6761 40.5658L28.6908 41.3941L28.7128 39.6628L30.4461 39.6338L29.578 39.6228C28.907 39.6144 28.7042 39.6261 28.6856 39.6747ZM31.2734 39.6747C31.2602 39.7092 31.2559 40.1102 31.2641 40.5658L31.2788 41.3941L31.3006 39.663L32.9852 39.6338L32.1414 39.6228C31.4905 39.6144 31.292 39.6261 31.2734 39.6747ZM42.6528 43.4327L41.0419 45.0561L42.6653 43.4452C44.1742 41.9478 44.3109 41.8091 44.2764 41.8091C44.2695 41.8091 43.5389 42.5397 42.6528 43.4327ZM28.6856 42.2625C28.6723 42.297 28.6681 42.6981 28.6761 43.1536L28.6908 43.9819L28.7128 42.2508L30.4461 42.2217L29.578 42.2106C28.907 42.2022 28.7042 42.2139 28.6856 42.2625ZM31.2738 43.9819L31.3028 42.2508L33.0341 42.2217L31.2519 42.1997L31.2738 43.9819ZM39.8695 46.2158L38.7469 47.3511L39.8822 46.2284C40.5066 45.6109 41.0175 45.1002 41.0175 45.0931C41.0175 45.0586 40.9128 45.1609 39.8695 46.2158ZM37.062 49.0234L35.4266 50.6714L37.0745 49.0359C37.9809 48.1364 38.7225 47.3949 38.7225 47.388C38.7225 47.3534 38.582 47.4919 37.062 49.0234ZM33.107 52.9784L30.8367 55.2613L33.1195 52.9909C34.375 51.7422 35.4022 50.715 35.4022 50.7081C35.4022 50.6739 35.2173 50.8567 33.107 52.9784Z" fill="#AEAEC4"/>
<path d="M74.8713 23.0836C75.1774 23.6448 75.526 24.3421 75.9172 25.1754C76.3254 25.9918 76.742 26.8846 77.1672 27.854C77.6094 28.8064 78.043 29.7843 78.4682 30.7877C78.8934 31.7911 79.293 32.735 79.6672 33.6193C80.0413 32.735 80.441 31.7911 80.8662 30.7877C81.2913 29.7843 81.7165 28.8064 82.1417 27.854C82.5839 26.8846 83.0005 25.9918 83.3917 25.1754C83.7999 24.3421 84.157 23.6448 84.4631 23.0836H88.0856C88.2556 24.2571 88.4087 25.5751 88.5447 27.0377C88.6978 28.4833 88.8254 29.9969 88.9274 31.5785C89.0464 33.1431 89.1485 34.7163 89.2335 36.2979C89.3356 37.8795 89.4206 39.3676 89.4886 40.7622H85.6111C85.5601 39.0445 85.492 37.1737 85.407 35.1499C85.322 33.1261 85.1944 31.0853 85.0243 29.0275C84.7182 29.7418 84.3781 30.5326 84.0039 31.3999C83.6298 32.2673 83.2556 33.1346 82.8815 34.002C82.5243 34.8693 82.1757 35.7026 81.8356 36.502C81.4954 37.2843 81.2063 37.9561 80.9682 38.5173H78.1876C77.9495 37.9561 77.6604 37.2843 77.3203 36.502C76.9801 35.7026 76.623 34.8693 76.2488 34.002C75.8917 33.1346 75.526 32.2673 75.1519 31.3999C74.7777 30.5326 74.4376 29.7418 74.1315 29.0275C73.9614 31.0853 73.8339 33.1261 73.7488 35.1499C73.6638 37.1737 73.5958 39.0445 73.5447 40.7622H69.6672C69.7352 39.3676 69.8117 37.8795 69.8968 36.2979C69.9988 34.7163 70.1009 33.1431 70.2029 31.5785C70.322 29.9969 70.4495 28.4833 70.5856 27.0377C70.7386 25.5751 70.9002 24.2571 71.0703 23.0836H74.8713Z" fill="#AEAEC4"/>
<path d="M110.586 23.0836C110.892 23.6448 111.24 24.3421 111.631 25.1754C112.04 25.9918 112.456 26.8846 112.881 27.854C113.324 28.8064 113.757 29.7843 114.182 30.7877C114.608 31.7911 115.007 32.735 115.381 33.6193C115.756 32.735 116.155 31.7911 116.58 30.7877C117.006 29.7843 117.431 28.8064 117.856 27.854C118.298 26.8846 118.715 25.9918 119.106 25.1754C119.514 24.3421 119.871 23.6448 120.177 23.0836H123.8C123.97 24.2571 124.123 25.5751 124.259 27.0377C124.412 28.4833 124.54 29.9969 124.642 31.5785C124.761 33.1431 124.863 34.7163 124.948 36.2979C125.05 37.8795 125.135 39.3676 125.203 40.7622H121.325C121.274 39.0445 121.206 37.1737 121.121 35.1499C121.036 33.1261 120.909 31.0853 120.739 29.0275C120.433 29.7418 120.092 30.5326 119.718 31.3999C119.344 32.2673 118.97 33.1346 118.596 34.002C118.239 34.8693 117.89 35.7026 117.55 36.502C117.21 37.2843 116.921 37.9561 116.682 38.5173H113.902C113.664 37.9561 113.375 37.2843 113.035 36.502C112.694 35.7026 112.337 34.8693 111.963 34.002C111.606 33.1346 111.24 32.2673 110.866 31.3999C110.492 30.5326 110.152 29.7418 109.846 29.0275C109.676 31.0853 109.548 33.1261 109.463 35.1499C109.378 37.1737 109.31 39.0445 109.259 40.7622H105.381C105.45 39.3676 105.526 37.8795 105.611 36.2979C105.713 34.7163 105.815 33.1431 105.917 31.5785C106.036 29.9969 106.164 28.4833 106.3 27.0377C106.453 25.5751 106.614 24.2571 106.785 23.0836H110.586Z" fill="#AEAEC4"/>
<path d="M102.473 27.7265C102.473 28.3727 102.346 28.9935 102.091 29.5887C101.836 30.1839 101.504 30.7622 101.096 31.3234C100.688 31.8676 100.228 32.3948 99.7182 32.905C99.208 33.4152 98.7063 33.8999 98.2131 34.3591C97.958 34.5972 97.6774 34.8693 97.3713 35.1754C97.0822 35.4646 96.8016 35.7622 96.5294 36.0683C96.2573 36.3744 96.0107 36.6635 95.7896 36.9356C95.5856 37.1907 95.458 37.4033 95.407 37.5734H103.009V40.7622H91.2233C91.1893 40.5751 91.1723 40.337 91.1723 40.0479C91.1723 39.7588 91.1723 39.5547 91.1723 39.4356C91.1723 38.6193 91.2998 37.871 91.5549 37.1907C91.8271 36.5105 92.1757 35.8812 92.6009 35.303C93.026 34.7078 93.5022 34.155 94.0294 33.6448C94.5737 33.1346 95.1094 32.6244 95.6366 32.1142C96.0447 31.7231 96.4274 31.3574 96.7845 31.0173C97.1417 30.6601 97.4563 30.32 97.7284 29.9969C98.0005 29.6567 98.2131 29.3251 98.3662 29.002C98.5192 28.6618 98.5958 28.3217 98.5958 27.9816C98.5958 27.2333 98.3832 26.706 97.958 26.3999C97.5328 26.0938 97.0056 25.9407 96.3764 25.9407C95.9172 25.9407 95.4835 26.0173 95.0754 26.1703C94.6842 26.3064 94.3186 26.4765 93.9784 26.6805C93.6553 26.8676 93.3747 27.0632 93.1366 27.2673C92.8985 27.4543 92.7199 27.6074 92.6009 27.7265L90.7131 25.0734C91.4614 24.3761 92.3288 23.8064 93.3152 23.3642C94.3186 22.905 95.39 22.6754 96.5294 22.6754C97.5669 22.6754 98.4597 22.7945 99.208 23.0326C99.9563 23.2707 100.569 23.6108 101.045 24.053C101.538 24.4782 101.895 25.0054 102.116 25.6346C102.354 26.2469 102.473 26.9441 102.473 27.7265Z" fill="#AEAEC4"/>
</svg>
