<svg width="190" height="41" viewBox="0 0 190 41" fill="none" xmlns="http://www.w3.org/2000/svg">
<g clip-path="url(#clip0_159_1569)">
<path fill-rule="evenodd" clip-rule="evenodd" d="M20.4923 13.1057C20.4923 14.9974 18.9586 16.5312 17.0668 16.5312C15.1748 16.5312 13.7122 14.9764 13.6411 13.1057C13.6411 11.2137 15.1748 9.67995 17.0668 9.67995C18.9586 9.67995 20.4923 11.2137 20.4923 13.1057ZM14.6311 20.6669C9.06986 20.6669 1.00579 7.50041 0.0999095 4.40882C0.0428955 4.17437 0.00942647 3.93481 0 3.69371C0 1.80194 1.53376 0.268188 3.42552 0.268188C4.88887 0.268188 6.10154 1.14584 6.6029 2.45045C6.63258 2.52611 6.67276 2.6224 6.74226 2.85208C7.2514 4.53516 9.57647 11.8646 12.9987 17.2485C13.3544 17.8077 13.7709 18.3283 14.2632 18.7721C14.7805 19.238 15.3475 19.5862 16.0472 19.6698C16.4682 19.6906 17.3978 19.6928 18.3363 19.1013C16.901 20.0776 15.6239 20.6669 14.6311 20.6669ZM151.95 27.7882V14.8456C151.95 14.5607 152.045 14.3207 152.234 14.1261C152.423 13.9315 152.655 13.834 152.928 13.834H157.208C157.481 13.834 157.74 13.9315 157.986 14.1261C158.231 14.3207 158.396 14.5536 158.48 14.8248L161.582 23.7312L164.686 14.8248C164.771 14.5536 164.936 14.3207 165.182 14.1261C165.426 13.9315 165.687 13.834 165.96 13.834H170.244C170.518 13.834 170.748 13.9315 170.934 14.1261C171.12 14.3207 171.213 14.5607 171.213 14.8456V27.7882C171.213 28.0733 171.115 28.3114 170.919 28.5024C170.724 28.6939 170.487 28.7893 170.208 28.7893H168.286C168.007 28.7893 167.77 28.6939 167.575 28.5024C167.379 28.3114 167.281 28.0733 167.281 27.7882V17.5989L163.604 27.8506C163.506 28.108 163.336 28.3288 163.093 28.5129C162.849 28.6971 162.592 28.7893 162.322 28.7893H160.831C160.561 28.7893 160.304 28.6971 160.065 28.5129C159.826 28.3288 159.654 28.108 159.549 27.8506L155.882 17.5989V27.7882C155.882 28.0733 155.784 28.3114 155.589 28.5024C155.394 28.6939 155.158 28.7893 154.881 28.7893H152.963C152.685 28.7893 152.448 28.6939 152.249 28.5024C152.05 28.3114 151.95 28.0733 151.95 27.7882ZM174.21 27.7911V14.8068C174.21 14.5218 174.308 14.2819 174.501 14.0872C174.697 13.8926 174.929 13.7952 175.2 13.7952H181.03C184.047 13.7952 186.243 14.3983 187.616 15.6045C188.99 16.811 189.676 18.702 189.676 21.278C189.676 23.8541 188.99 25.7435 187.616 26.9462C186.243 28.1491 184.047 28.7505 181.03 28.7505H175.2C174.929 28.7505 174.697 28.6584 174.501 28.4742C174.308 28.2899 174.21 28.062 174.21 27.7911ZM178.141 25.799H180.916C182.778 25.799 184.049 25.4584 184.728 24.777C185.405 24.0957 185.745 22.9294 185.745 21.278C185.745 19.6267 185.406 18.4588 184.733 17.7739C184.058 17.0892 182.786 16.7466 180.916 16.7466H178.141V25.799ZM145.298 27.3904V26.7375C145.298 26.2816 145.414 25.9328 145.646 25.691C145.878 25.4494 146.209 25.3283 146.64 25.3283H147.863C148.3 25.3283 148.633 25.4494 148.862 25.691C149.09 25.9328 149.205 26.2816 149.205 26.7375V27.3904C149.205 27.8255 149.09 28.1676 148.862 28.4162C148.633 28.6649 148.3 28.7893 147.863 28.7893H146.64C146.202 28.7893 145.87 28.6649 145.641 28.4162C145.412 28.1676 145.298 27.8255 145.298 27.3904ZM40.9767 40.2472H39.8042V34.3375H38.4427V33.2946H40.9767V40.2472ZM45.7723 33.2648C47.6704 33.2648 48.7236 34.5163 48.7236 36.7708C48.7236 39.0255 47.6704 40.2771 45.7723 40.2771C43.8644 40.2771 42.811 39.0255 42.811 36.7708C42.811 34.5163 43.8644 33.2648 45.7723 33.2648ZM45.7723 34.1885C44.5998 34.1885 44.0134 35.003 44.0134 36.7708C44.0134 38.529 44.5998 39.3534 45.7723 39.3534C46.935 39.3534 47.5213 38.529 47.5213 36.7708C47.5213 35.003 46.935 34.1885 45.7723 34.1885ZM52.8503 33.2648C54.7484 33.2648 55.8018 34.5163 55.8018 36.7708C55.8018 39.0255 54.7484 40.2771 52.8503 40.2771C50.9424 40.2771 49.889 39.0255 49.889 36.7708C49.889 34.5163 50.9424 33.2648 52.8503 33.2648ZM52.8503 34.1885C51.6778 34.1885 51.0916 35.003 51.0916 36.7708C51.0916 38.529 51.6778 39.3534 52.8503 39.3534C54.013 39.3534 54.5993 38.529 54.5993 36.7708C54.5993 35.003 54.013 34.1885 52.8503 34.1885ZM63.9432 36.1252C65.0858 36.1252 65.7815 36.9 65.7815 38.1913C65.7815 39.4923 65.0858 40.2669 63.9432 40.2669C62.8004 40.2669 62.1048 39.4923 62.1048 38.1913C62.1048 36.9 62.8004 36.1252 63.9432 36.1252ZM63.9432 36.7907C63.2574 36.7907 62.8699 37.3073 62.8699 38.1913C62.8699 39.0852 63.2574 39.5918 63.9432 39.5918C64.6288 39.5918 65.0262 39.0852 65.0262 38.1913C65.0262 37.3073 64.6288 36.7907 63.9432 36.7907ZM58.1795 40.2472L63.2972 33.2946H64.3902L59.2825 40.2472H58.1795ZM58.7062 33.2747C59.849 33.2747 60.5446 34.0495 60.5446 35.3406C60.5446 36.6418 59.849 37.4264 58.7062 37.4264C57.5634 37.4264 56.8679 36.6418 56.8679 35.3406C56.8679 34.0495 57.5634 33.2747 58.7062 33.2747ZM58.7062 33.9502C58.0205 33.9502 57.6329 34.4566 57.6329 35.3406C57.6329 36.2345 58.0205 36.7511 58.7062 36.7511C59.3919 36.7511 59.7893 36.2345 59.7893 35.3406C59.7893 34.4566 59.3919 33.9502 58.7062 33.9502ZM72.2279 34.9236C73.8576 34.9236 74.9805 36.0061 74.9805 37.6054C74.9805 39.1945 73.8576 40.2868 72.2279 40.2868C70.5882 40.2868 69.4653 39.1945 69.4653 37.6054C69.4653 36.0061 70.5882 34.9236 72.2279 34.9236ZM72.2279 35.9069C71.2738 35.9069 70.6081 36.6019 70.6081 37.6152C70.6081 38.6383 71.2738 39.3333 72.2279 39.3333C73.1719 39.3333 73.8376 38.6383 73.8376 37.6152C73.8376 36.6019 73.1719 35.9069 72.2279 35.9069ZM79.3663 34.9236C80.5985 34.9236 81.3339 35.6984 81.3339 36.9596V40.2472H80.1911V37.2774C80.1911 36.4828 79.7142 35.9962 78.9193 35.9962C78.0447 36.0061 77.4983 36.6119 77.4186 37.4363V40.2472H76.2758V34.9632H77.4186V35.9762C77.7964 35.2414 78.472 34.9236 79.3663 34.9236ZM83.4036 40.2472V32.8774H84.5464V40.2472H83.4036ZM86.6101 40.2472V34.9632H87.743V40.2472H86.6101ZM87.1767 32.7583C87.5542 32.7583 87.8424 33.0465 87.8424 33.4535C87.8424 33.8508 87.5542 34.1388 87.1767 34.1388C86.7991 34.1388 86.5108 33.8508 86.5108 33.4535C86.5108 33.0465 86.7991 32.7583 87.1767 32.7583ZM92.9569 34.9236C94.1891 34.9236 94.9245 35.6984 94.9245 36.9596V40.2472H93.7817V37.2774C93.7817 36.4828 93.3046 35.9962 92.5097 35.9962C91.6353 36.0061 91.0887 36.6119 91.0092 37.4363V40.2472H89.8664V34.9632H91.0092V35.9762C91.3868 35.2414 92.0624 34.9236 92.9569 34.9236ZM99.1207 34.9236C100.979 34.9236 101.734 36.1352 101.595 38.0421H97.6004C97.7792 38.8566 98.4053 39.3632 99.24 39.3632C99.8163 39.3632 100.343 39.1447 100.73 38.7475L101.337 39.3929C100.82 39.9592 100.065 40.2868 99.1506 40.2868C97.5209 40.2868 96.4476 39.2043 96.4476 37.6152C96.4476 36.0162 97.5506 34.9333 99.1207 34.9236ZM97.5805 37.2081H100.601C100.562 36.3538 99.9951 35.8372 99.1307 35.8372C98.2959 35.8372 97.7097 36.3636 97.5805 37.2081Z" fill="#AEAEC4"/>
<path fill-rule="evenodd" clip-rule="evenodd" d="M14.6311 20.6669C20.481 20.6669 36.1869 0.249146 36.1869 0.249146C36.1869 0.249146 24.3769 28.8917 16.3226 28.8917C11.1909 28.8917 1.07776 8.70869 0.088623 4.37186C0.942017 7.39648 9.04826 20.6669 14.6311 20.6669ZM51.8729 27.0291C50.5815 25.7936 49.9359 23.8879 49.9359 21.3116C49.9359 18.7355 50.5865 16.83 51.8879 15.5945C53.1891 14.359 55.1413 13.7415 57.744 13.7415H60.0906C61.683 13.7415 63.0913 14.1521 64.3156 14.9729C65.5397 15.7941 66.1518 16.9179 66.1518 18.3444C66.1518 18.7559 66.026 19.0504 65.7742 19.2282C65.5228 19.4061 65.2781 19.4948 65.041 19.4948H63.7576C63.096 19.4948 62.582 19.112 62.2153 18.3462C61.7 17.2464 60.8439 16.6964 59.6466 16.6964H57.788C56.2635 16.6964 55.2298 17.0231 54.6868 17.6768C54.1438 18.3304 53.8723 19.5404 53.8723 21.3063C53.8723 23.0727 54.1438 24.2843 54.6868 24.9413C55.2298 25.5985 56.2635 25.927 57.788 25.927H59.866C61.0631 25.927 61.916 25.3777 62.4242 24.2788C62.7791 23.5121 63.2803 23.1284 63.9277 23.1284H65.1702C65.2957 23.1284 65.4296 23.1545 65.5724 23.2063C65.7149 23.2582 65.8611 23.3791 66.011 23.569C66.1605 23.7592 66.2354 23.9956 66.2354 24.2788C66.2354 25.7087 65.6298 26.8334 64.4186 27.6528C63.2074 28.4723 61.8115 28.8819 60.2314 28.8819H57.6837C55.1009 28.8819 53.1639 28.2644 51.8729 27.0291ZM69.3304 27.8169V14.8169C69.3304 14.5454 69.4242 14.3123 69.6122 14.1174C69.8001 13.9224 70.03 13.8249 70.3015 13.8249H78.9159C80.5098 13.8249 81.8169 14.2531 82.8369 15.1092C83.8566 15.9655 84.3664 17.121 84.3664 18.5758C84.3664 20.6015 83.0542 21.8721 80.43 22.3872C80.8405 22.5474 81.2251 22.8119 81.5836 23.1807C81.942 23.5498 82.3512 24.0891 82.8106 24.7992L84.7111 27.8169C84.8294 28.0187 84.8886 28.1927 84.8886 28.3389C84.8886 28.4015 84.8781 28.4607 84.8573 28.5165C84.7874 28.7044 84.6171 28.7983 84.3456 28.7983H81.8396C81.5681 28.7983 81.2758 28.7027 80.9625 28.5112C80.6492 28.3197 80.4092 28.0884 80.2419 27.8169L78.4669 25.0394C77.7427 23.8978 76.8588 23.327 75.8146 23.327H73.2669V27.8169C73.2669 28.0884 73.171 28.3197 72.9798 28.5112C72.7882 28.7027 72.5569 28.7983 72.2854 28.7983H70.3223C70.0508 28.7983 69.8175 28.7027 69.6227 28.5112C69.4278 28.3197 69.3304 28.0884 69.3304 27.8169ZM73.2669 20.3719H77.715C78.4251 20.3719 79.055 20.2292 79.605 19.9438C80.1547 19.6584 80.43 19.2024 80.43 18.5758C80.43 17.9494 80.1567 17.4937 79.6102 17.2081C79.0636 16.9226 78.432 16.78 77.715 16.78H73.2669V20.3719ZM87.6703 27.7959V14.7959C87.6703 14.5244 87.7677 14.2948 87.9626 14.1069C88.1574 13.919 88.3907 13.8249 88.6622 13.8249H100.702C100.973 13.8249 101.204 13.9224 101.396 14.1174C101.587 14.3123 101.683 14.5454 101.683 14.8169V15.7985C101.683 16.07 101.587 16.3015 101.396 16.4928C101.204 16.6843 100.973 16.78 100.702 16.78H91.6068V19.8081H99.4379C99.7094 19.8081 99.9409 19.9042 100.132 20.0962C100.324 20.2882 100.42 20.5205 100.42 20.793V21.778C100.42 22.0506 100.324 22.2828 100.132 22.4748C99.9409 22.6671 99.7094 22.763 99.4379 22.763H91.6068V25.8434H100.681C100.952 25.8434 101.18 25.9373 101.365 26.1253C101.549 26.3132 101.641 26.5431 101.641 26.8144V27.8169C101.641 28.0884 101.544 28.3197 101.349 28.5112C101.154 28.7027 100.921 28.7983 100.649 28.7983H88.6622C88.3907 28.7983 88.1574 28.7027 87.9626 28.5112C87.7677 28.3197 87.6703 28.0815 87.6703 27.7959ZM104.663 27.8377V14.8377C104.663 14.5525 104.761 14.3123 104.956 14.1174C105.15 13.9224 105.384 13.8249 105.655 13.8249H111.492C114.513 13.8249 116.711 14.4289 118.086 15.6365C119.461 16.8444 120.148 18.7378 120.148 21.3168C120.148 23.896 119.461 25.7878 118.086 26.992C116.711 28.1963 114.513 28.7983 111.492 28.7983H105.655C105.384 28.7983 105.15 28.7062 104.956 28.5217C104.761 28.3373 104.663 28.1092 104.663 27.8377ZM108.6 25.8434H111.377C113.243 25.8434 114.515 25.5024 115.194 24.8202C115.872 24.1378 116.212 22.9702 116.212 21.3168C116.212 19.6636 115.874 18.4942 115.199 17.8084C114.524 17.1228 113.25 16.78 111.377 16.78H108.6V25.8434ZM123.348 27.8377V14.8169C123.348 14.5454 123.445 14.3123 123.64 14.1174C123.835 13.9224 124.068 13.8249 124.34 13.8249H126.282C126.567 13.8249 126.806 13.9224 126.997 14.1174C127.188 14.3123 127.284 14.5454 127.284 14.8169V27.8169C127.284 28.0884 127.185 28.3197 126.987 28.5112C126.788 28.7027 126.553 28.7983 126.282 28.7983H124.34C124.068 28.7983 123.835 28.7062 123.64 28.5217C123.445 28.3373 123.348 28.1092 123.348 27.8377ZM130.055 15.7985V14.8169C130.055 14.5315 130.149 14.2948 130.337 14.1069C130.525 13.919 130.762 13.8249 131.047 13.8249H144.298C144.583 13.8249 144.82 13.919 145.008 14.1069C145.196 14.2948 145.29 14.5315 145.29 14.8169V15.7985C145.29 16.0839 145.196 16.3188 145.008 16.5033C144.82 16.6877 144.583 16.78 144.298 16.78H139.641V27.8377C139.641 28.1092 139.545 28.3373 139.354 28.5217C139.162 28.7062 138.931 28.7983 138.659 28.7983H136.686C136.414 28.7983 136.183 28.7062 135.991 28.5217C135.8 28.3373 135.704 28.1092 135.704 27.8377V16.78H131.047C130.762 16.78 130.525 16.6877 130.337 16.5033C130.149 16.3188 130.055 16.0839 130.055 15.7985ZM32.4646 14.7018C32.4227 14.6184 32.4019 14.5384 32.4019 14.4618C32.4019 14.3366 32.4506 14.2182 32.5482 14.1069C32.7082 13.919 32.9064 13.8249 33.1431 13.8249H35.4294C35.9722 13.8249 36.3862 14.1556 36.6716 14.8167L40.7116 23.8155L44.7518 14.8167C45.037 14.1626 45.4512 13.832 45.994 13.8249H48.2803C48.5237 13.8249 48.7221 13.919 48.8752 14.1069C48.9726 14.2182 49.0215 14.3366 49.0215 14.4618C49.0215 14.5384 49.0039 14.6184 48.9692 14.7018L42.9561 27.7302C42.6289 28.4401 42.1315 28.795 41.4633 28.795H39.9599C39.2919 28.795 38.7943 28.4401 38.4673 27.7302L32.4646 14.7018Z" fill="#AEAEC4"/>
</g>
<defs>
<clipPath id="clip0_159_1569">
<rect width="189.683" height="40" fill="white" transform="translate(0 0.267944)"/>
</clipPath>
</defs>
</svg>
